# xmcd
#
# Track frame offsets:
#  150
#  17076
#  37158
#  56580
#  69704
#  89801
#  107049
#  121964
#  138305
#  156058
#  172691
#  191121
#  209017
#
# Disc length: 3075 seconds
#
# Revision: 0
# Processed by: cddbd v1.5.1PL2 Copyright (c) Steve Scherf et al.
# Submitted via: Collectorz.com_Music_Collector 6.11
#
DISCID=be0c010d
DTITLE=Various Artist - The Blues Train: Train Trax Vol. 1
DYEAR=2004
DGENRE=Blues
TTITLE0=Steel and the Welcome Wagon, Dave - West Coast Railway
TTITLE1=Hocking, Jimi - The Golden Rule
TTITLE2=Wilson, Chris - Go Go Gaugin
TTITLE3=Grunwald, Ash - Hey Baby
TTITLE4=Dyson, Mia - Roll on
TTITLE5=Spiegel, Lloyd - Loretta
TTITLE6=Spectrum - I Wonder Who's Kissing Her Now
TTITLE7=Mallee Roots - Travel on
TTITLE8=Simpson and Ron Tabuteau, Kerri - Call Sweet Baby's Name
TTITLE9=Collard Greens and Gravy - Luv Me Baby
TTITLE10=Rae and The Elevators, Chubby - Crazy Hot Rod
TTITLE11=Warner and Al MacInnes, Dan - Door To Door
TTITLE12=McDowell, Stringy Bark - Thankyou Mr. Burnside, Have a Nice Day
EXTD=
EXTT0=
EXTT1=
EXTT2=
EXTT3=
EXTT4=
EXTT5=
EXTT6=
EXTT7=
EXTT8=
EXTT9=
EXTT10=
EXTT11=
EXTT12=
PLAYORDER=
